# xmcd CD database file
#
# Track frame offsets:
#	150
#	15515
#	30153
#	47565
#	64620
#	81903
#	97832
#	120203
#	133634
#	149157
#	165407
#	182155
#
# Disc length: 2628 seconds
#
# Revision: 6
# Processed by: cddbd v1.5.1PL0 Copyright (c) Steve Scherf et al.
# Submitted via: CDex 1.51
#
DISCID=8d0a420c
DTITLE=Zezé di Camargo and Luciano - É o Amor
DYEAR=1991
DGENRE=Sertanejo
TTITLE0=É o amor
TTITLE1=Entre ele e eu
TTITLE2=Redeas do possante
TTITLE3=Deus
TTITLE4=A estrela só
TTITLE5=Pouco a pouco
TTITLE6=Aguas passadas
TTITLE7=Eu te amo
TTITLE8=Quem sou eu sem ela
TTITLE9=Pra desbotar a saudade
TTITLE10=Em mim só dá você
TTITLE11=Quem sabe de mim sou eu
EXTD=YEAR: 1991
EXTT0=
EXTT1=
EXTT2=
EXTT3=
EXTT4=
EXTT5=
EXTT6=
EXTT7=
EXTT8=
EXTT9=
EXTT10=
EXTT11=
PLAYORDER=
